<?xml version="1.0" encoding="UTF-8" standalone="no"?>
<!DOCTYPE svg PUBLIC "-//W3C//DTD SVG 1.1//EN" "http://www.w3.org/Graphics/SVG/1.1/DTD/svg11.dtd">
<svg width="100%" height="100%" viewBox="0 0 112 45" version="1.1" xmlns="http://www.w3.org/2000/svg" xmlns:xlink="http://www.w3.org/1999/xlink" xml:space="preserve" xmlns:serif="http://www.serif.com/" style="fill-rule:evenodd;clip-rule:evenodd;stroke-linejoin:round;stroke-miterlimit:2;">
    <g transform="matrix(1,0,0,1,-779.866667,-205.725)">
        <g>
            <g transform="matrix(-5.555556,0,0,5.555556,1737.194444,-143.783333)">
                <rect x="152.319" y="62.912" width="8.057" height="8.057" style="fill:white;"/>
            </g>
            <g transform="matrix(5.555556,0,0,5.555556,856.042778,215.553333)">
                <path d="M-0.718,3.801L1.769,6.288L3.206,6.288L0.718,3.801L0,3.082L-0.718,3.801ZM-1.769,3.205L3.206,-1.769L1.769,-1.769L-1.769,1.769L-1.769,3.205ZM1.541,2.978L4.852,6.288L6.288,6.288L2.26,2.259L6.288,-1.769L4.852,-1.769L1.541,1.541L0.823,2.259L1.541,2.978Z" style="fill:rgb(227,211,189);"/>
            </g>
            <g transform="matrix(5.555556,0,0,5.555556,786.792778,222.512778)">
                <path d="M0,-1.505L-0.361,-1.931L0.102,-2.313L0.455,-1.886L0,-1.505ZM1.505,-0.611L1.505,0.053L1.099,0.053C1.088,0.559 0.712,0.808 -0.029,0.799C-0.373,0.799 -0.659,0.702 -0.886,0.506C-1.113,0.311 -1.226,0.02 -1.226,-0.365C-1.226,-0.6 -1.18,-0.842 -1.087,-1.091L-0.578,-1.124C-0.641,-0.897 -0.673,-0.703 -0.673,-0.541C-0.673,-0.295 -0.613,-0.116 -0.494,-0.004C-0.375,0.108 -0.186,0.164 0.074,0.164C0.394,0.164 0.547,0.064 0.533,-0.135L0.533,-1.595L1.099,-1.595L1.099,-0.611L1.505,-0.611Z" style="fill:white;fill-rule:nonzero;"/>
            </g>
            <g transform="matrix(5.555556,0,0,5.555556,0,-158.077778)">
                <rect x="143.046" y="67.895" width="0.824" height="0.664" style="fill:white;"/>
            </g>
            <g transform="matrix(5.555556,0,0,5.555556,805.495,217.317778)">
                <path d="M0,1.259L0.365,1.702L-0.09,2.083L-0.373,1.747L-0.779,2.083L-1.148,1.64L-0.685,1.259L-0.41,1.595L0,1.259ZM-0.636,0.324L-0.636,-0.824L-0.061,-0.824L-0.061,0.324L0.426,0.324L0.426,0.988L-1.169,0.988L-1.169,0.324L-0.636,0.324Z" style="fill:white;fill-rule:nonzero;"/>
            </g>
            <g transform="matrix(5.555556,0,0,5.555556,0,-158.077778)">
                <rect x="145.325" y="67.895" width="0.824" height="0.664" style="fill:white;"/>
            </g>
            <g transform="matrix(5.555556,0,0,5.555556,816.042222,218.321111)">
                <path d="M0,-1.304L-0.361,-1.73L0.103,-2.112L0.455,-1.685L0,-1.304ZM-0.254,0.143L-0.254,-1.005L0.32,-1.005L0.32,0.143L0.808,0.143L0.808,0.808L-0.787,0.808L-0.787,0.143L-0.254,0.143Z" style="fill:white;fill-rule:nonzero;"/>
            </g>
            <g transform="matrix(5.555556,0,0,5.555556,0,-158.077778)">
                <rect x="147.605" y="67.895" width="0.824" height="0.664" style="fill:white;"/>
            </g>
            <g transform="matrix(5.555556,0,0,5.555556,839.415,205.725)">
                <path d="M0,3.075L-2.715,3.075L-2.715,2.411L-0.734,2.419C-0.791,2.247 -0.884,2.126 -1.013,2.056C-1.141,1.986 -1.318,1.951 -1.542,1.951L-2.292,1.951L-2.518,1.418L-1.107,0L-0.771,0.471L-1.788,1.361L-1.304,1.361C-1.001,1.361 -0.754,1.435 -0.566,1.582C-0.383,1.73 -0.235,2.006 -0.123,2.411L0,3.075Z" style="fill:white;fill-rule:nonzero;"/>
            </g>
            <g transform="matrix(5.555556,0,0,5.555556,793.444444,234.427778)">
                <path d="M0,2.788L0,2.829L-0.804,2.829L-1.771,1.517L-1.771,2.829L-2.444,2.829L-2.444,-0.041L-1.771,-0.041L-1.771,1.271L-0.8,-0.041L-0.082,-0.041L-0.082,-0L-1.111,1.328L0,2.788Z" style="fill:white;fill-rule:nonzero;"/>
            </g>
            <g transform="matrix(5.555556,0,0,5.555556,798.273333,242.146111)">
                <path d="M0,0.841C0,0.983 0.09,1.054 0.271,1.054C0.388,1.054 0.523,1.017 0.677,0.944L0.677,0.607C0.403,0.624 0.189,0.647 0.033,0.677C0.011,0.724 0,0.778 0,0.841M1.3,0.078L1.3,0.763C1.3,0.96 1.338,1.17 1.415,1.395L1.398,1.44L0.775,1.44C0.748,1.374 0.73,1.324 0.722,1.288C0.547,1.43 0.336,1.501 0.09,1.501C-0.131,1.501 -0.303,1.449 -0.424,1.343C-0.546,1.238 -0.607,1.09 -0.607,0.898C-0.607,0.74 -0.566,0.579 -0.484,0.415C-0.161,0.327 0.226,0.277 0.677,0.263L0.677,0.23C0.677,0.118 0.651,0.037 0.599,-0.012C0.547,-0.061 0.462,-0.086 0.344,-0.086C0.139,-0.086 -0.12,-0.054 -0.435,0.009L-0.472,-0.016L-0.472,-0.553C-0.124,-0.624 0.191,-0.66 0.476,-0.66C0.76,-0.66 0.968,-0.603 1.101,-0.49C1.234,-0.376 1.3,-0.187 1.3,0.078" style="fill:white;fill-rule:nonzero;"/>
            </g>
            <g transform="matrix(5.555556,0,0,5.555556,815.586667,250.147222)">
                <path d="M0,-2.104C0.451,-2.104 0.677,-1.872 0.677,-1.407L0.677,0L0.02,0L0.02,-1.202C0.02,-1.399 -0.062,-1.497 -0.226,-1.497C-0.357,-1.497 -0.487,-1.445 -0.615,-1.341L-0.615,0L-1.271,0L-1.271,-2.051L-0.697,-2.051L-0.644,-1.878C-0.444,-2.029 -0.23,-2.104 0,-2.104" style="fill:white;fill-rule:nonzero;"/>
            </g>
            <g transform="matrix(5.555556,0,0,5.555556,0,-117.322222)">
                <path d="M148.638,66.144L147.982,66.144L147.982,64.094L148.638,64.094L148.638,66.144ZM148.31,63.868L147.863,63.421L148.31,62.974L148.757,63.421L148.31,63.868Z" style="fill:white;fill-rule:nonzero;"/>
            </g>
            <g transform="matrix(5.555556,0,0,5.555556,835.61,250.147222)">
                <path d="M0,-2.104C0.451,-2.104 0.677,-1.872 0.677,-1.407L0.677,0L0.02,0L0.02,-1.202C0.02,-1.399 -0.062,-1.497 -0.226,-1.497C-0.357,-1.497 -0.487,-1.445 -0.615,-1.341L-0.615,0L-1.271,0L-1.271,-2.051L-0.697,-2.051L-0.644,-1.878C-0.444,-2.029 -0.23,-2.104 0,-2.104" style="fill:white;fill-rule:nonzero;"/>
            </g>
        </g>
    </g>
</svg>
