<svg xmlns="http://www.w3.org/2000/svg"
     viewBox="40 185 468 195"
     preserveAspectRatio="xMidYMid meet">
    <defs>
        <style>
            .st0 { fill: #1d2c59; }
            .st1 { fill: #e4d3bd; fill-rule: evenodd; }
        </style>
    </defs>

    <!-- Icon -->
    <rect class="st0" x="313.73" y="176.94" width="184.32" height="184.32"/>
    <path class="st1" d="M389.46,285.53l75.72,75.72h32.87l-92.16-92.16,92.16-92.16h-32.87l-75.72,75.72-16.43,16.43,16.43,16.43h0ZM313.73,290.74l113.8-113.8h-32.87l-80.93,80.93v32.87h0ZM354.2,320.79l40.47,40.47h32.87l-56.9-56.9-16.43-16.43-16.43,16.43,16.43,16.43h0Z"/>

    <!-- Wordmark -->
    <g>
        <path class="st0" d="M103.48,232.1v15.2h-9.29c-.25,11.57-8.85,17.26-25.79,17.07-7.88,0-14.41-2.24-19.6-6.71-5.19-4.47-7.79-11.11-7.79-19.93,0-5.38,1.06-10.91,3.19-16.6l11.63-.75c-1.44,5.19-2.16,9.63-2.16,13.32,0,5.63,1.36,9.72,4.08,12.29,2.72,2.56,7.05,3.85,12.99,3.85,7.32,0,10.82-2.28,10.51-6.85v-33.39h12.94v22.51h9.29ZM69.05,211.65l-8.25-9.75,10.6-8.72,8.07,9.75-10.41,8.72Z"/>
        <path class="st0" d="M101.6,232.1h18.85v15.2h-18.85v-15.2Z"/>
        <path class="st0" d="M131.52,232.1v-26.26h13.13v26.26h11.16v15.2h-36.49v-15.2h12.19ZM146.06,253.48l8.35,10.13-10.41,8.72-6.47-7.69-9.29,7.69-8.44-10.13,10.6-8.72,6.28,7.69,9.38-7.69Z"/>
        <path class="st0" d="M153.75,232.1h18.85v15.2h-18.85v-15.2Z"/>
        <path class="st0" d="M183.68,232.1v-26.26h13.13v26.26h11.16v15.2h-36.49v-15.2h12.19ZM189.49,198.98l-8.25-9.75,10.6-8.72,8.07,9.75-10.41,8.72Z"/>
        <path class="st0" d="M205.91,232.1h18.85v15.2h-18.85v-15.2Z"/>
        <path class="st0" d="M285.73,247.29h-62.1v-15.2l45.31.19c-1.31-3.94-3.44-6.71-6.38-8.3-2.94-1.59-6.97-2.39-12.1-2.39h-17.17l-5.16-12.19,32.27-32.45,7.69,10.79-23.26,20.35h11.07c6.94,0,12.57,1.69,16.88,5.06,4.19,3.38,7.57,9.69,10.13,18.95l2.81,15.2Z"/>
        <path class="st0" d="M96.44,358.91v.94h-18.39l-22.14-30.02v30.02h-15.38v-65.66h15.38v30.02l22.23-30.02h16.42v.94l-23.54,30.39,25.42,33.39Z"/>
        <path class="st0" d="M146.06,328.71v15.67c0,4.5.87,9.32,2.63,14.45l-.37,1.03h-14.26c-.63-1.5-1.03-2.66-1.22-3.47-4,3.25-8.82,4.88-14.45,4.88-5.07,0-8.99-1.2-11.77-3.61-2.78-2.41-4.17-5.8-4.17-10.18,0-3.63.94-7.32,2.81-11.07,7.38-2,16.23-3.16,26.54-3.47v-.75c0-2.56-.59-4.41-1.78-5.53-1.19-1.13-3.13-1.69-5.82-1.69-4.69,0-10.63.72-17.82,2.16l-.84-.56v-12.29c7.94-1.62,15.16-2.44,21.67-2.44s11.27,1.3,14.3,3.89c3.03,2.6,4.55,6.93,4.55,12.99ZM116.33,346.15c0,3.25,2.06,4.88,6.19,4.88,2.69,0,5.78-.84,9.29-2.53v-7.69c-6.25.38-11.16.91-14.73,1.59-.5,1.06-.75,2.31-.75,3.75Z"/>
        <path class="st0" d="M187.61,311.73c10.32,0,15.48,5.32,15.48,15.95v32.17h-15.01v-27.48c0-4.5-1.88-6.75-5.63-6.75-3,0-5.97,1.19-8.91,3.56v30.67h-15.01v-46.9h13.13l1.22,3.94c4.56-3.44,9.47-5.16,14.73-5.16Z"/>
        <path class="st0" d="M222.04,307.79l-10.22-10.22,10.22-10.22,10.22,10.22-10.22,10.22ZM229.54,312.95v46.9h-15.01v-46.9h15.01Z"/>
        <path class="st0" d="M270.06,311.73c10.32,0,15.48,5.32,15.48,15.95v32.17h-15.01v-27.48c0-4.5-1.88-6.75-5.63-6.75-3,0-5.97,1.19-8.91,3.56v30.67h-15.01v-46.9h13.13l1.22,3.94c4.56-3.44,9.47-5.16,14.73-5.16Z"/>
    </g>
</svg>
